# xmcd
# 
# Track frame offsets:
#     150
#     20691
#     39259
#     52959
#     65304
#     77001
#     91774
#     119099
#     133754
#     158636
#     171461
#     183783
#     197304
#     214636
#     232471
#     243871
#     254228
#     265661
#     296811
# 
# Disc length: 4298
# 
# Revision: 1
# Processed by: cddbd v1.5.2PL0 Copyright (c) Steve Scherf et al.
# Submitted via: BonkEnc v1.0.8
# 
DISCID=0f10c813
DTITLE=Derek Bell - The Mystic Harp
DYEAR=1996
DGENRE=New Age
TTITLE0=Celtic Moonrise
TTITLE1=New Dawn featuring Alasdair Fraser on violin
TTITLE2=The Hill That Was Tara
TTITLE3=Dublin Town
TTITLE4=Playboy Of The Western World
TTITLE5=Irish Lullaby
TTITLE6=Desdemona's Song
TTITLE7=Maurya s Lament
TTITLE8=Mukunda
TTITLE9=Parade
TTITLE10=Memories Of That Isle
TTITLE11=Ancient Memories
TTITLE12=Deirdre s Sorrows
TTITLE13=Mist
TTITLE14=Daughter of Aran
TTITLE15=Homeward Bound
TTITLE16=Lift Your Heart In Strength
TTITLE17=Woodland Devas
TTITLE18=Emerald Isle
EXTD=
EXTT0=
EXTT1=
EXTT2=
EXTT3=
EXTT4=
EXTT5=
EXTT6=
EXTT7=
EXTT8=
EXTT9=
EXTT10=
EXTT11=
EXTT12=
EXTT13=
EXTT14=
EXTT15=
EXTT16=
EXTT17=
EXTT18=
PLAYORDER=
